<?xml version="1.0" encoding="iso-8859-1"?>
<!-- Generator: Adobe Illustrator 19.0.0, SVG Export Plug-In . SVG Version: 6.00 Build 0)  -->
<svg version="1.1" id="Layer_1" xmlns="http://www.w3.org/2000/svg" xmlns:xlink="http://www.w3.org/1999/xlink" x="0px" y="0px"
	 viewBox="0 0 512.001 512.001" style="enable-background:new 0 0 512.001 512.001;" xml:space="preserve">
<path style="fill:#FF6465;" d="M305.858,10.189L143.194,172.852c-9.946,9.946-9.945,26.072,0,36.018l162.665,162.664
	c9.946,9.946,26.072,9.946,36.018,0L504.542,208.87c9.946-9.946,9.946-26.071,0-36.018L341.876,10.189
	C331.93,0.243,315.803,0.243,305.858,10.189z"/>
<g>
	<circle style="fill:#FFFFFF;" cx="209.989" cy="190.866" r="22.424"/>
	<circle style="fill:#FFFFFF;" cx="323.869" cy="76.986" r="22.424"/>
	<circle style="fill:#FFFFFF;" cx="323.869" cy="304.746" r="22.424"/>
	<circle style="fill:#FFFFFF;" cx="437.748" cy="190.866" r="22.424"/>
</g>
<path style="opacity:0.1;enable-background:new    ;" d="M349.52,327.873L186.855,165.21c-9.946-9.946-9.946-26.072,0-36.018
	l-43.661,43.661c-9.946,9.946-9.945,26.072,0,36.018l162.665,162.664c9.946,9.946,26.072,9.946,36.018,0l43.661-43.661
	C375.591,337.819,359.466,337.82,349.52,327.873z"/>
<path style="fill:#515262;" d="M255.51,228.293H25.469C11.403,228.293,0,239.696,0,253.761v230.042
	c0,14.067,11.403,25.469,25.469,25.469H255.51c14.065,0,25.469-11.402,25.469-25.469V253.761
	C280.979,239.696,269.576,228.293,255.51,228.293z"/>
<g>
	<circle style="fill:#FFFFFF;" cx="140.491" cy="368.786" r="22.424"/>
	<circle style="fill:#FFFFFF;" cx="59.964" cy="288.253" r="22.424"/>
	<circle style="fill:#FFFFFF;" cx="221.014" cy="288.253" r="22.424"/>
	<circle style="fill:#FFFFFF;" cx="59.964" cy="449.308" r="22.424"/>
	<circle style="fill:#FFFFFF;" cx="221.014" cy="449.308" r="22.424"/>
</g>
<path style="opacity:0.1;enable-background:new    ;" d="M54.577,483.803V253.761c0-14.066,11.403-25.469,25.469-25.469H25.469
	C11.403,228.293,0,239.696,0,253.761v230.042c0,14.067,11.403,25.469,25.469,25.469h54.577
	C65.98,509.272,54.577,497.868,54.577,483.803z"/>
<g>
</g>
<g>
</g>
<g>
</g>
<g>
</g>
<g>
</g>
<g>
</g>
<g>
</g>
<g>
</g>
<g>
</g>
<g>
</g>
<g>
</g>
<g>
</g>
<g>
</g>
<g>
</g>
<g>
</g>
</svg>
