<?xml version="1.0" encoding="iso-8859-1"?>
<!-- Generator: Adobe Illustrator 19.0.0, SVG Export Plug-In . SVG Version: 6.00 Build 0)  -->
<svg version="1.1" id="Layer_1" xmlns="http://www.w3.org/2000/svg" xmlns:xlink="http://www.w3.org/1999/xlink" x="0px" y="0px"
	 viewBox="0 0 477.656 477.656" style="enable-background:new 0 0 477.656 477.656;" xml:space="preserve">
<rect x="85.656" y="6.828" style="fill:#66CEDB;" width="344" height="128"/>
<rect x="117.656" y="30.828" style="fill:#E74C3C;" width="80" height="80"/>
<g>
	<rect x="213.656" y="30.828" style="fill:#34495E;" width="176" height="16"/>
	<rect x="213.656" y="62.828" style="fill:#34495E;" width="176" height="16"/>
	<rect x="213.656" y="94.828" style="fill:#34495E;" width="176" height="16"/>
</g>
<rect x="133.656" y="182.828" style="fill:#F6BF58;" width="344" height="128"/>
<g>
	<rect x="165.656" y="206.828" style="fill:#CE9232;" width="80" height="80"/>
	<rect x="261.656" y="206.828" style="fill:#CE9232;" width="176" height="16"/>
	<rect x="261.656" y="238.828" style="fill:#CE9232;" width="176" height="16"/>
	<rect x="261.656" y="270.828" style="fill:#CE9232;" width="176" height="16"/>
</g>
<rect x="133.656" y="342.828" style="fill:#F6BF58;" width="344" height="128"/>
<g>
	<rect x="165.656" y="366.828" style="fill:#CE9232;" width="80" height="80"/>
	<rect x="261.656" y="366.828" style="fill:#CE9232;" width="176" height="16"/>
	<rect x="261.656" y="398.828" style="fill:#CE9232;" width="176" height="16"/>
	<rect x="261.656" y="430.828" style="fill:#CE9232;" width="176" height="16"/>
</g>
<g>
	<polygon style="fill:#66CEDB;" points="48,68.484 29.656,50.14 11.312,68.484 0,57.172 29.656,27.516 59.312,57.172 	"/>
	<rect x="21.656" y="38.828" style="fill:#66CEDB;" width="16" height="64"/>
</g>
<g>
	<polygon style="fill:#E74C3C;" points="37.656,282.14 8,252.484 19.312,241.172 37.656,259.516 56,241.172 67.312,252.484 	"/>
	<rect x="29.656" y="206.828" style="fill:#E74C3C;" width="16" height="64"/>
	<polygon style="fill:#E74C3C;" points="37.656,442.14 8,412.484 19.312,401.172 37.656,419.516 56,401.172 67.312,412.484 	"/>
	<rect x="29.656" y="366.828" style="fill:#E74C3C;" width="16" height="64"/>
</g>
<g>
	<rect x="85.656" y="206.828" style="fill:#F6BF58;" width="16" height="16"/>
	<rect x="85.656" y="238.828" style="fill:#F6BF58;" width="16" height="16"/>
	<rect x="85.656" y="270.828" style="fill:#F6BF58;" width="16" height="16"/>
	<rect x="85.656" y="366.828" style="fill:#F6BF58;" width="16" height="16"/>
	<rect x="85.656" y="398.828" style="fill:#F6BF58;" width="16" height="16"/>
	<rect x="85.656" y="430.828" style="fill:#F6BF58;" width="16" height="16"/>
</g>
<g>
</g>
<g>
</g>
<g>
</g>
<g>
</g>
<g>
</g>
<g>
</g>
<g>
</g>
<g>
</g>
<g>
</g>
<g>
</g>
<g>
</g>
<g>
</g>
<g>
</g>
<g>
</g>
<g>
</g>
</svg>
